<svg width="93" height="33" viewBox="0 0 93 33" fill="none" xmlns="http://www.w3.org/2000/svg">
<path d="M9.97199 32.372C7.42799 32.372 5.36399 31.868 3.77999 30.86C2.19599 29.852 1.25999 28.376 0.971989 26.432H6.65999C6.82799 26.912 7.16399 27.332 7.66799 27.692C8.17199 28.052 8.91599 28.232 9.89999 28.232C11.148 28.232 12.048 27.92 12.6 27.296C13.152 26.696 13.428 25.832 13.428 24.704V22.868H13.284C12.732 23.492 12.084 24.008 11.34 24.416C10.62 24.8 9.69599 24.992 8.56799 24.992C7.53599 24.992 6.53999 24.8 5.57999 24.416C4.61999 24.032 3.76799 23.48 3.02399 22.76C2.27999 22.016 1.67999 21.104 1.22399 20.024C0.791989 18.92 0.575989 17.66 0.575989 16.244C0.575989 14.9 0.755989 13.664 1.11599 12.536C1.49999 11.408 2.02799 10.436 2.69999 9.62C3.39599 8.80399 4.21199 8.16799 5.14799 7.712C6.10799 7.256 7.16399 7.028 8.31599 7.028C9.53999 7.028 10.572 7.256 11.412 7.712C12.252 8.16799 12.948 8.77999 13.5 9.54799H13.572V7.568H19.188V24.2C19.188 25.592 18.96 26.792 18.504 27.8C18.072 28.808 17.484 29.648 16.74 30.32C15.924 31.04 14.928 31.556 13.752 31.868C12.6 32.204 11.34 32.372 9.97199 32.372ZM9.93599 20.636C11.208 20.636 12.144 20.192 12.744 19.304C13.368 18.416 13.68 17.324 13.68 16.028C13.68 15.404 13.596 14.816 13.428 14.264C13.284 13.712 13.044 13.232 12.708 12.824C12.396 12.392 12 12.056 11.52 11.816C11.064 11.576 10.536 11.456 9.93599 11.456C8.83199 11.456 7.94399 11.876 7.27199 12.716C6.62399 13.532 6.29999 14.648 6.29999 16.064C6.29999 17.456 6.62399 18.572 7.27199 19.412C7.94399 20.228 8.83199 20.636 9.93599 20.636Z" fill="black"/>
<path d="M30.2156 22.4C31.5116 22.4 32.4836 21.896 33.1315 20.888C33.8036 19.856 34.1396 18.5 34.1396 16.82C34.1396 15.14 33.8036 13.784 33.1315 12.752C32.4836 11.72 31.5116 11.204 30.2156 11.204C28.9196 11.204 27.9476 11.72 27.2996 12.752C26.6516 13.784 26.3276 15.14 26.3276 16.82C26.3276 18.5 26.6516 19.856 27.2996 20.888C27.9476 21.896 28.9196 22.4 30.2156 22.4ZM30.2516 26.576C28.7636 26.576 27.4076 26.336 26.1835 25.856C24.9835 25.352 23.9516 24.668 23.0876 23.804C22.2236 22.916 21.5516 21.884 21.0716 20.708C20.6156 19.508 20.3876 18.212 20.3876 16.82C20.3876 15.428 20.6156 14.144 21.0716 12.968C21.5516 11.768 22.2236 10.736 23.0876 9.87199C23.9516 8.98399 24.9835 8.3 26.1835 7.82C27.4076 7.316 28.7636 7.06399 30.2516 7.06399C31.7396 7.06399 33.0836 7.316 34.2836 7.82C35.5076 8.3 36.5396 8.98399 37.3796 9.87199C38.2436 10.736 38.9036 11.768 39.3596 12.968C39.8396 14.144 40.0796 15.428 40.0796 16.82C40.0796 18.212 39.8396 19.508 39.3596 20.708C38.9036 21.884 38.2436 22.916 37.3796 23.804C36.5396 24.668 35.5076 25.352 34.2836 25.856C33.0836 26.336 31.7396 26.576 30.2516 26.576Z" fill="black"/>
<path d="M49.1865 26.576C48.1065 26.576 47.0505 26.444 46.0185 26.18C45.0105 25.94 44.1105 25.556 43.3185 25.028C42.5265 24.5 41.8785 23.828 41.3745 23.012C40.8945 22.172 40.6305 21.176 40.5825 20.024H46.0545C46.1025 20.792 46.3665 21.44 46.8465 21.968C47.3505 22.472 48.1665 22.724 49.2945 22.724C50.0625 22.724 50.6745 22.592 51.1305 22.328C51.6105 22.04 51.8505 21.584 51.8505 20.96C51.8505 20.312 51.4665 19.856 50.6985 19.592C49.9545 19.304 48.9705 18.98 47.7465 18.62C46.9785 18.404 46.2585 18.152 45.5865 17.864C44.9145 17.576 44.3265 17.228 43.8225 16.82C43.3425 16.388 42.9585 15.884 42.6705 15.308C42.4065 14.708 42.2745 14 42.2745 13.184C42.2745 12.176 42.4665 11.3 42.8505 10.556C43.2585 9.78799 43.8105 9.14 44.5065 8.612C45.2265 8.084 46.0665 7.688 47.0265 7.42399C48.0105 7.16 49.0785 7.028 50.2305 7.028C51.2385 7.028 52.1985 7.14799 53.1105 7.38799C54.0465 7.60399 54.8625 7.95199 55.5585 8.43199C56.2785 8.888 56.8545 9.5 57.2865 10.268C57.7425 11.012 58.0065 11.9 58.0785 12.932H52.7865C52.7145 12.284 52.4385 11.768 51.9585 11.384C51.5025 10.976 50.8545 10.772 50.0145 10.772C49.4145 10.772 48.8625 10.892 48.3585 11.132C47.8545 11.372 47.6025 11.768 47.6025 12.32C47.6025 12.872 47.9385 13.28 48.6105 13.544C49.3065 13.808 50.3025 14.12 51.5985 14.48C52.3185 14.696 53.0145 14.948 53.6865 15.236C54.3825 15.5 54.9945 15.848 55.5225 16.28C56.0505 16.688 56.4705 17.204 56.7825 17.828C57.1185 18.428 57.2865 19.16 57.2865 20.024C57.2865 22.184 56.5665 23.816 55.1265 24.92C53.6865 26.024 51.7065 26.576 49.1865 26.576Z" fill="black"/>
<path d="M62.3721 0.259995H68.1321L66.2241 10.088H66.3321C67.0281 9.15199 67.8201 8.40799 68.7081 7.856C69.5961 7.304 70.7001 7.028 72.0201 7.028C72.9561 7.028 73.7721 7.208 74.4681 7.568C75.1881 7.904 75.7761 8.40799 76.2321 9.07999C76.6881 9.72799 76.9761 10.532 77.0961 11.492C77.2401 12.428 77.2041 13.484 76.9881 14.66L74.7921 26H69.0321L71.1561 15.092C71.3481 14.084 71.2761 13.28 70.9401 12.68C70.6041 12.08 69.9561 11.78 68.9961 11.78C67.9881 11.78 67.1481 12.176 66.4761 12.968C65.8041 13.76 65.3481 14.732 65.1081 15.884L63.1641 26H57.4041L62.3721 0.259995Z" fill="black"/>
<path d="M87.094 0.259995H92.134L82.522 26H77.482L87.094 0.259995Z" fill="black"/>
</svg>
